<?xml version="1.0" encoding="UTF-8"?>
<svg width="518px" height="120px" viewBox="0 0 518 120" version="1.1" xmlns="http://www.w3.org/2000/svg" xmlns:xlink="http://www.w3.org/1999/xlink">
    <!-- Generator: Sketch 51.2 (57519) - http://www.bohemiancoding.com/sketch -->
    <title>Group</title>
    <desc>Created with Sketch.</desc>
    <defs></defs>
    <g id="KOP---DSM" stroke="none" stroke-width="1" fill="none" fill-rule="evenodd">
        <g id="KOP-DSM-:-Typography-Copy" transform="translate(-621.000000, -270.000000)" fill="#252C33">
            <g id="Group" transform="translate(621.000000, 270.000000)">
                <path d="M60.0121951,6.31578947 C30.4040732,6.31578947 6.31707317,30.3978947 6.31707317,60 C6.31707317,89.6021053 30.4040732,113.684211 60.0121951,113.684211 L457.987805,113.684211 C487.595927,113.684211 511.682927,89.6021053 511.682927,60 C511.682927,30.3978947 487.595927,6.31578947 457.987805,6.31578947 L60.0121951,6.31578947 Z M457.987805,120 L60.0121951,120 C26.9217866,120 0,93.0836842 0,60 C0,26.9163158 26.9217866,0 60.0121951,0 L457.987805,0 C491.078213,0 518,26.9163158 518,60 C518,93.0836842 491.078213,120 457.987805,120 Z" id="Fill-3"></path>
                <path d="M142.817338,25.2631579 C139.175545,25.2631579 136.017009,26.6510526 133.160112,29.5073684 L121.266643,41.3163158 L121.266643,37.7257895 C121.266643,30.8542105 115.674454,25.2631579 108.799899,25.2631579 C101.926923,25.2631579 96.3347341,30.8542105 96.3347341,37.7257895 L96.3347341,82.2742105 C96.3347341,89.1457895 101.926923,94.7368421 108.799899,94.7368421 C115.674454,94.7368421 121.266643,89.1457895 121.266643,82.2742105 L121.266643,74.0289474 L132.924801,89.2989474 C133.982911,90.6678947 137.128813,94.7368421 143.13635,94.7368421 C150.17199,94.7368421 155.682057,89.3321053 155.682057,82.4336842 C155.682057,78.4594737 153.935387,75.8178947 152.621435,74.1757895 L139.098161,57.1989474 L150.563649,46.4921053 C153.382643,43.8394737 154.803984,40.7336842 154.803984,37.2473684 C154.803984,30.5273684 149.538704,25.2631579 142.817338,25.2631579 M142.817338,31.5789474 C146.250667,31.5789474 148.486911,34.2126316 148.486911,37.2473684 C148.486911,39.1626316 147.608838,40.5994737 146.250667,41.8768421 L130.519576,56.5657895 L147.687801,78.1215789 C148.646417,79.3184211 149.364984,80.5957895 149.364984,82.4336842 C149.364984,85.8663158 146.730765,88.4210526 143.13635,88.4210526 C140.7406,88.4210526 139.303466,87.2226316 137.946874,85.4668421 L121.977313,64.5505263 L114.94957,71.0968421 L114.94957,82.2742105 C114.94957,85.7052632 112.234807,88.4210526 108.799899,88.4210526 C105.368149,88.4210526 102.651807,85.7052632 102.651807,82.2742105 L102.651807,37.7257895 C102.651807,34.2931579 105.368149,31.5789474 108.799899,31.5789474 C112.234807,31.5789474 114.94957,34.2931579 114.94957,37.7257895 L114.94957,56.4868421 L137.626283,33.9742105 C139.14396,32.4568421 140.661637,31.5789474 142.817338,31.5789474" id="Fill-7"></path>
                <path d="M258.293593,70.9555263 C252.404502,70.9555263 247.963599,66.2455263 247.963599,59.9992105 L247.963599,59.8428947 C247.963599,54.4760526 251.45852,49.0444737 258.137246,49.0444737 C264.026337,49.0444737 268.46724,53.7528947 268.46724,59.9992105 L268.46724,60.1571053 C268.46724,65.5239474 264.972319,70.9555263 258.293593,70.9555263 M258.293593,25.2639474 C238.326904,25.2639474 222.68741,40.5213158 222.68741,59.9992105 L222.68741,60.1571053 C222.68741,79.5465789 238.258996,94.7376316 258.137246,94.7376316 C278.103935,94.7376316 293.743429,79.4771053 293.743429,59.9992105 L293.743429,59.8428947 C293.743429,40.4534211 278.171843,25.2639474 258.293593,25.2639474 M258.293593,77.2713158 C268.031362,77.2713158 274.784313,69.5786842 274.784313,60.1571053 L274.784313,59.9992105 C274.784313,50.5792105 267.873435,42.7286842 258.137246,42.7286842 C248.401057,42.7286842 241.646526,50.4213158 241.646526,59.8428947 L241.646526,59.9992105 C241.646526,69.4207895 248.557404,77.2713158 258.293593,77.2713158 M258.293593,31.5797368 C275.254935,31.5797368 287.426355,44.2192105 287.426355,59.8428947 L287.426355,59.9992105 C287.426355,75.6228947 275.098587,88.4218421 258.137246,88.4218421 C241.175904,88.4218421 229.004484,75.7807895 229.004484,60.1571053 L229.004484,59.9992105 C229.004484,44.3771053 241.332252,31.5797368 258.293593,31.5797368" id="Fill-11"></path>
                <path d="M391.427174,49.0861579 L394.691521,49.0861579 C398.440704,49.0861579 398.440704,50.2640526 398.440704,51.3045789 L398.440704,51.4656316 C398.440704,52.9372105 397.259412,53.6840526 394.934729,53.6840526 L391.427174,53.6840526 L391.427174,49.0861579 Z M395.738576,25.263 L378.908314,25.263 C372.005332,25.263 366.389454,30.8777368 366.389454,37.7793158 L366.389454,82.2203684 C366.389454,89.1219474 372.005332,94.7366842 378.908314,94.7366842 C385.811296,94.7366842 391.427174,89.1219474 391.427174,82.2203684 L391.427174,77.3445789 L394.532015,77.3445789 C411.94029,77.3445789 423.63793,66.8477368 423.63793,51.2240526 L423.63793,51.063 C423.63793,35.6319474 412.426704,25.263 395.738576,25.263 Z M385.110101,59.9998421 L394.934729,59.9998421 C401.133357,59.9998421 404.757777,56.2940526 404.757777,51.4656316 L404.757777,51.3045789 C404.757777,45.7498421 400.891729,42.7703684 394.691521,42.7703684 L385.110101,42.7703684 L385.110101,59.9998421 Z M395.738576,31.5787895 C409.186046,31.5787895 417.320857,39.5477368 417.320857,51.063 L417.320857,51.2240526 C417.320857,64.2677368 407.174058,71.0287895 394.532015,71.0287895 L385.110101,71.0287895 L385.110101,82.2203684 C385.110101,85.683 382.371649,88.4208947 378.908314,88.4208947 C375.446558,88.4208947 372.706527,85.683 372.706527,82.2203684 L372.706527,37.7793158 C372.706527,34.3166842 375.446558,31.5787895 378.908314,31.5787895 L395.738576,31.5787895 Z" id="Fill-15"></path>
                <path d="M60.0121951,45.7894737 C52.1616524,45.7894737 45.7987805,52.1510526 45.7987805,60 C45.7987805,67.8489474 52.1616524,74.2105263 60.0121951,74.2105263 C67.8627378,74.2105263 74.2256098,67.8489474 74.2256098,60 C74.2256098,52.1510526 67.8627378,45.7894737 60.0121951,45.7894737 M60.0121951,52.1052632 C64.3662378,52.1052632 67.9085366,55.6468421 67.9085366,60 C67.9085366,64.3531579 64.3662378,67.8947368 60.0121951,67.8947368 C55.6581524,67.8947368 52.1158537,64.3531579 52.1158537,60 C52.1158537,55.6468421 55.6581524,52.1052632 60.0121951,52.1052632" id="Fill-17"></path>
                <path d="M187.932927,45.7894737 C180.082384,45.7894737 173.719512,52.1510526 173.719512,60 C173.719512,67.8489474 180.082384,74.2105263 187.932927,74.2105263 C195.78347,74.2105263 202.146341,67.8489474 202.146341,60 C202.146341,52.1510526 195.78347,45.7894737 187.932927,45.7894737 M187.932927,52.1052632 C192.28697,52.1052632 195.829268,55.6468421 195.829268,60 C195.829268,64.3531579 192.28697,67.8947368 187.932927,67.8947368 C183.578884,67.8947368 180.036585,64.3531579 180.036585,60 C180.036585,55.6468421 183.578884,52.1052632 187.932927,52.1052632" id="Fill-19"></path>
                <path d="M330.067073,45.7894737 C322.21653,45.7894737 315.853659,52.1510526 315.853659,60 C315.853659,67.8489474 322.21653,74.2105263 330.067073,74.2105263 C337.917616,74.2105263 344.280488,67.8489474 344.280488,60 C344.280488,52.1510526 337.917616,45.7894737 330.067073,45.7894737 M330.067073,52.1052632 C334.421116,52.1052632 337.963415,55.6468421 337.963415,60 C337.963415,64.3531579 334.421116,67.8947368 330.067073,67.8947368 C325.71303,67.8947368 322.170732,64.3531579 322.170732,60 C322.170732,55.6468421 325.71303,52.1052632 330.067073,52.1052632" id="Fill-21"></path>
                <path d="M457.987805,45.7894737 C450.137262,45.7894737 443.77439,52.1510526 443.77439,60 C443.77439,67.8489474 450.137262,74.2105263 457.987805,74.2105263 C465.838348,74.2105263 472.20122,67.8489474 472.20122,60 C472.20122,52.1510526 465.838348,45.7894737 457.987805,45.7894737 M457.987805,52.1052632 C462.341848,52.1052632 465.884146,55.6468421 465.884146,60 C465.884146,64.3531579 462.341848,67.8947368 457.987805,67.8947368 C453.633762,67.8947368 450.091463,64.3531579 450.091463,60 C450.091463,55.6468421 453.633762,52.1052632 457.987805,52.1052632" id="Fill-23"></path>
            </g>
        </g>
    </g>
</svg>